<svg width="18" height="17" viewBox="0 0 18 17" fill="none" xmlns="http://www.w3.org/2000/svg">
<path d="M17.198 8.5C17.198 9.55057 16.9911 10.5909 16.589 11.5615C16.187 12.5321 15.5977 13.414 14.8549 14.1569C14.112 14.8997 13.2301 15.489 12.2595 15.891C11.2889 16.2931 10.2486 16.5 9.198 16.5C8.14742 16.5 7.10713 16.2931 6.13653 15.891C5.16593 15.489 4.28401 14.8997 3.54114 14.1569C2.79827 13.414 2.209 12.5321 1.80696 11.5615C1.40492 10.5909 1.198 9.55057 1.198 8.5C1.198 7.44942 1.40492 6.40914 1.80696 5.43853C2.209 4.46793 2.79828 3.58601 3.54114 2.84315C4.28401 2.10028 5.16593 1.511 6.13653 1.10896C7.10714 0.706926 8.14742 0.5 9.198 0.5C10.2486 0.5 11.2889 0.706926 12.2595 1.10896C13.2301 1.511 14.112 2.10028 14.8549 2.84315C15.5977 3.58602 16.187 4.46793 16.589 5.43853C16.9911 6.40914 17.198 7.44943 17.198 8.5L17.198 8.5Z" stroke="#756D6D"/>
<path d="M8.59076 3.64282L8.59076 8.49997" stroke="#756D6D" stroke-linecap="round"/>
<path d="M8.59076 8.5L12.8408 11.5357" stroke="#756D6D" stroke-linecap="round"/>
</svg>
