<svg width="18" height="19" viewBox="0 0 18 19" fill="none" xmlns="http://www.w3.org/2000/svg">
<path d="M17.5 9.5C17.5 10.6162 17.2801 11.7215 16.853 12.7528C16.4258 13.7841 15.7997 14.7211 15.0104 15.5104C14.2211 16.2997 13.2841 16.9258 12.2528 17.353C11.2215 17.7801 10.1162 18 9 18C7.88376 18 6.77846 17.7801 5.74719 17.353C4.71592 16.9258 3.77889 16.2997 2.98959 15.5104C2.20029 14.7211 1.57419 13.7841 1.14702 12.7528C0.719859 11.7215 0.5 10.6162 0.5 9.5C0.5 8.38376 0.719859 7.27846 1.14702 6.24719C1.57419 5.21592 2.20029 4.27889 2.98959 3.48959C3.77889 2.70029 4.71592 2.07419 5.74719 1.64702C6.77846 1.21986 7.88377 1 9 1C10.1162 1 11.2215 1.21986 12.2528 1.64702C13.2841 2.07419 14.2211 2.7003 15.0104 3.48959C15.7997 4.27889 16.4258 5.21592 16.853 6.24719C17.2801 7.27846 17.5 8.38377 17.5 9.5L17.5 9.5Z" stroke="#756D6D"/>
<path d="M8.35645 4.35712L8.35645 9.49997" stroke="#756D6D" stroke-linecap="round"/>
<path d="M8.35645 9.5L12.8564 12.7143" stroke="#756D6D" stroke-linecap="round"/>
</svg>
