<svg width="35" height="34" viewBox="0 0 35 34" fill="none" xmlns="http://www.w3.org/2000/svg">
<path d="M32.2646 12.2514H24.6564C23.8159 12.2514 23.1348 11.5495 23.1348 10.6838V2.84534C23.1348 1.9795 23.816 1.27771 24.6564 1.27771H32.2646C33.105 1.27771 33.7862 1.97958 33.7862 2.84534V10.6837C33.7862 11.5495 33.1049 12.2514 32.2646 12.2514Z" fill="#B3E59F"/>
<path d="M32.2646 25.9685H24.6564C23.8159 25.9685 23.1348 25.2666 23.1348 24.4008V16.5625C23.1348 15.6967 23.816 14.9949 24.6564 14.9949H32.2646C33.105 14.9949 33.7862 15.6967 33.7862 16.5625V24.4008C33.7862 25.2666 33.1049 25.9685 32.2646 25.9685Z" fill="#90D8F9"/>
<path d="M9.12987 12.2514H1.5216C0.681183 12.2514 0 11.5495 0 10.6838V2.84534C0 1.97958 0.681266 1.27771 1.5216 1.27771H9.12978C9.9702 1.27771 10.6514 1.97958 10.6514 2.84534V10.6837C10.6515 11.5495 9.9702 12.2514 9.12987 12.2514Z" fill="#DF75A5"/>
<path d="M3.00404 10.1031C3.32284 10.2281 3.67987 10.0634 3.80138 9.73486L4.14786 8.79756H6.50807L6.85076 9.733C6.9441 9.98786 7.1792 10.145 7.42889 10.145C7.50138 10.145 7.57511 10.1317 7.64694 10.1038C7.96616 9.97971 8.12729 9.61239 8.00677 9.28352L6.02509 3.87374C6.02303 3.86797 6.0208 3.8622 6.0185 3.85643C5.90416 3.56999 5.6361 3.38489 5.3355 3.38489C5.33525 3.38489 5.33501 3.38489 5.33476 3.38489C5.03392 3.38514 4.76586 3.57075 4.65193 3.8577C4.65003 3.86245 4.64814 3.86729 4.64641 3.87213L2.6466 9.28174C2.5251 9.61027 2.68524 9.97801 3.00404 10.1031ZM5.33336 5.59066L6.04173 7.52451H4.61848L5.33336 5.59066Z" fill="black"/>
<path d="M13.3149 4.65794H17.8085C18.1498 4.65794 18.4263 4.37294 18.4263 4.02141C18.4263 3.66988 18.1498 3.38489 17.8085 3.38489H13.3149C12.9736 3.38489 12.697 3.66988 12.697 4.02141C12.697 4.37294 12.9736 4.65794 13.3149 4.65794Z" fill="black"/>
<path d="M13.3149 7.40116H16.1442C16.4855 7.40116 16.762 7.11617 16.762 6.76464C16.762 6.41311 16.4855 6.12811 16.1442 6.12811H13.3149C12.9736 6.12811 12.697 6.41311 12.697 6.76464C12.697 7.11617 12.9736 7.40116 13.3149 7.40116Z" fill="black"/>
<path d="M13.3149 10.1443H16.1442C16.4855 10.1443 16.762 9.85933 16.762 9.5078C16.762 9.15627 16.4855 8.87128 16.1442 8.87128H13.3149C12.9736 8.87128 12.697 9.15627 12.697 9.5078C12.697 9.85933 12.9736 10.1443 13.3149 10.1443Z" fill="black"/>
<path d="M13.3149 18.3749H17.8085C18.1498 18.3749 18.4263 18.0899 18.4263 17.7383C18.4263 17.3868 18.1498 17.1018 17.8085 17.1018H13.3149C12.9736 17.1018 12.697 17.3868 12.697 17.7383C12.697 18.0899 12.9736 18.3749 13.3149 18.3749Z" fill="black"/>
<path d="M13.3149 21.1181H16.1442C16.4855 21.1181 16.762 20.8331 16.762 20.4816C16.762 20.1301 16.4855 19.8451 16.1442 19.8451H13.3149C12.9736 19.8451 12.697 20.1301 12.697 20.4816C12.697 20.8331 12.9736 21.1181 13.3149 21.1181Z" fill="black"/>
<path d="M13.3149 23.8617H16.1442C16.4855 23.8617 16.762 23.5767 16.762 23.2252C16.762 22.8737 16.4855 22.5887 16.1442 22.5887H13.3149C12.9736 22.5887 12.697 22.8737 12.697 23.2252C12.697 23.5767 12.9736 23.8617 13.3149 23.8617Z" fill="black"/>
<path d="M28.9531 10.1443C29.6747 10.1443 30.3221 9.90023 30.8254 9.43845C30.924 9.3479 31.0179 9.24826 31.1041 9.14217C31.3233 8.8728 31.289 8.47128 31.0274 8.24552C30.766 8.01977 30.3762 8.05507 30.1571 8.32445C30.1092 8.38327 30.0577 8.43818 30.0036 8.48774C29.7263 8.74227 29.3729 8.87127 28.9531 8.87127C27.8255 8.87127 26.908 7.92607 26.908 6.76437C26.908 5.60267 27.8255 4.65747 28.9531 4.65747C29.363 4.65747 29.7581 4.78172 30.0961 5.0169C30.3788 5.21363 30.7628 5.13707 30.9539 4.84571C31.1448 4.55444 31.0705 4.15878 30.7877 3.96196C30.2448 3.58412 29.6104 3.38434 28.9531 3.38434C27.144 3.38434 25.6724 4.90063 25.6724 6.76429C25.6724 8.62795 27.144 10.1443 28.9531 10.1443Z" fill="black"/>
<path d="M26.0125 23.1361C26.018 23.3336 26.0621 23.5359 26.2059 23.6769C26.3215 23.7953 26.4781 23.8617 26.6411 23.8617H26.6434C26.689 23.8615 27.7641 23.8572 28.1935 23.8496C29.7659 23.8212 30.9071 22.4048 30.9071 20.4818C30.9071 18.4601 29.7945 17.1018 28.1386 17.1018H26.6303C26.4663 17.1018 26.3089 17.169 26.1929 17.2887C26.0771 17.4084 26.0121 17.5705 26.0125 17.7395V17.7438V17.744V23.1361ZM28.1387 18.3749C29.2689 18.3749 29.6715 19.4632 29.6715 20.4818C29.6715 21.5111 29.2078 22.558 28.172 22.5767C27.9627 22.5804 27.585 22.5835 27.2569 22.5855C27.2549 21.9366 27.252 20.9592 27.252 20.4757C27.252 20.0719 27.2503 19.0497 27.2493 18.3749H28.1387Z" fill="black"/>
<path d="M9.12987 25.9687H1.5216C0.681183 25.9687 0 25.2668 0 24.401V16.5627C0 15.6968 0.681266 14.9951 1.5216 14.9951H9.12978C9.9702 14.9951 10.6514 15.6969 10.6514 16.5627V24.401C10.6515 25.2668 9.9702 25.9687 9.12987 25.9687Z" fill="#FFE07D"/>
<path d="M6.16352 20.365C6.35158 20.4006 6.52232 20.4926 6.67573 20.6411C6.8341 20.7895 6.95782 20.9736 7.0469 21.1933C7.14093 21.413 7.18795 21.6475 7.18795 21.8969C7.18795 22.2115 7.12114 22.4965 6.98752 22.7518C6.85389 23.0012 6.65841 23.2001 6.40107 23.3486C6.14867 23.4911 5.84926 23.5623 5.50284 23.5623H3.57275V17.3547H5.4286C5.77998 17.3547 6.07939 17.426 6.32683 17.5685C6.57428 17.705 6.75986 17.892 6.88359 18.1295C7.00731 18.367 7.06917 18.6342 7.06917 18.9311C7.06917 19.2992 6.98504 19.605 6.81678 19.8484C6.65346 20.0859 6.43571 20.2581 6.16352 20.365ZM4.24828 20.0355H5.38406C5.70079 20.0355 5.94577 19.9464 6.11898 19.7683C6.29219 19.5902 6.3788 19.3438 6.3788 19.0291C6.3788 18.7144 6.29219 18.468 6.11898 18.2899C5.94577 18.1117 5.69584 18.0227 5.36921 18.0227H4.24828V20.0355ZM5.44345 22.8943C5.77998 22.8943 6.04227 22.7993 6.23033 22.6093C6.41839 22.4193 6.51242 22.1551 6.51242 21.8167C6.51242 21.4723 6.41344 21.2022 6.21548 21.0062C6.01752 20.8044 5.75276 20.7034 5.42118 20.7034H4.24828V22.8943H5.44345Z" fill="black"/>
<path d="M6.81678 19.8484L6.85791 19.8769C7.03322 19.6232 7.11917 19.3069 7.11917 18.9311C7.11917 18.6271 7.05576 18.3518 6.92793 18.1064C6.79947 17.8599 6.60675 17.6659 6.35139 17.5249C6.09487 17.3773 5.78655 17.3047 5.4286 17.3047H3.57275H3.52275V17.3547V23.5623V23.6123H3.57275H5.50284C5.85619 23.6123 6.16441 23.5396 6.42565 23.3921L6.42605 23.3919C6.69105 23.239 6.89334 23.0335 7.03159 22.7755L7.03181 22.775C7.16952 22.5119 7.23795 22.2189 7.23795 21.8969C7.23795 21.6412 7.18974 21.4001 7.09306 21.174C7.00158 20.9486 6.87408 20.7586 6.71021 20.6049C6.58902 20.4877 6.45644 20.4035 6.31263 20.3533C6.53396 20.2422 6.71598 20.0833 6.85798 19.8768L6.81678 19.8484ZM6.81678 19.8484C6.6695 20.0626 6.47795 20.2237 6.24213 20.3316L5.4286 17.3547C5.77998 17.3547 6.07939 17.426 6.32683 17.5685C6.57428 17.705 6.75986 17.892 6.88359 18.1295C7.00731 18.367 7.06917 18.6342 7.06917 18.9311C7.06917 19.2992 6.98504 19.605 6.81678 19.8484ZM6.17978 21.0412L6.17978 21.0412L6.18031 21.0418C6.36664 21.2262 6.46242 21.4823 6.46242 21.8167C6.46242 22.1456 6.37128 22.3959 6.19479 22.5742C6.01841 22.7524 5.77027 22.8443 5.44345 22.8443H4.29828V20.7534H5.42118C5.74184 20.7534 5.99285 20.8506 6.17978 21.0412ZM5.38406 19.9855H4.29828V18.0727H5.36921C5.68677 18.0727 5.92203 18.159 6.08313 18.3247C6.24502 18.4912 6.3288 18.7238 6.3288 19.0291C6.3288 19.3344 6.24502 19.5669 6.08313 19.7334C5.92175 19.8994 5.6912 19.9855 5.38406 19.9855Z" stroke="black" stroke-width="0.1"/>
<path d="M22.4028 17.2015L22.3723 17.2099C21.9554 17.3223 21.5959 17.5977 21.364 17.9822C20.9195 17.3061 20.1432 16.9462 19.3971 17.1521C18.9407 17.2818 18.5563 17.6041 18.3317 18.0461C17.8756 17.4929 17.1795 17.2244 16.5075 17.4099L16.4751 17.4189C16.1134 17.5123 15.7947 17.7352 15.5714 18.0506L14.3966 13.5335C14.1127 12.4419 13.0907 11.7723 12.1286 12.0379C11.1675 12.3032 10.6113 13.4079 10.8945 14.4988L13.2173 23.4632L12.5851 22.9775C12.0271 22.538 11.3283 22.3625 10.6555 22.4925C9.99742 22.6233 9.42498 23.04 9.0739 23.6444L8.75824 24.1234C8.65646 24.278 8.67097 24.4895 8.79295 24.6316L14.9316 31.7766C16.0539 33.0822 17.6877 33.639 19.194 33.2232L23.6947 31.9807L23.6936 31.9765C25.9756 31.3466 27.2725 28.7084 26.5954 26.0955C26.2923 24.9265 26.0617 24.0565 25.8788 23.3503C25.3898 21.4607 25.2067 20.7642 24.661 18.6843C24.3755 17.5959 23.3623 16.9366 22.4028 17.2015Z" fill="#ECC199"/>
<path d="M22.4028 17.2015L22.3723 17.2099C21.9554 17.3223 21.5959 17.5977 21.364 17.9822C20.9195 17.3061 20.1432 16.9462 19.3971 17.1521C18.9407 17.2818 18.5563 17.6041 18.3317 18.0461C17.8756 17.4929 17.1795 17.2244 16.5075 17.4099L16.4751 17.4189C16.1134 17.5123 15.7947 17.7352 15.5714 18.0506L14.3966 13.5335C14.1127 12.4419 13.0907 11.7723 12.1286 12.0379C11.1675 12.3032 10.6113 13.4079 10.8945 14.4988L13.2173 23.4632L12.5851 22.9775C12.0271 22.538 11.3283 22.3625 10.6555 22.4925C9.99742 22.6233 9.42498 23.04 9.0739 23.6444L8.75824 24.1234C8.65646 24.278 8.67097 24.4895 8.79295 24.6316L14.9316 31.7766C16.0539 33.0822 17.6877 33.639 19.194 33.2232L23.6947 31.9807L23.6936 31.9765C25.9756 31.3466 27.2725 28.7084 26.5954 26.0955C26.2923 24.9265 26.0617 24.0565 25.8788 23.3503C25.3898 21.4607 25.2067 20.7642 24.661 18.6843C24.3755 17.5959 23.3623 16.9366 22.4028 17.2015ZM25.1425 23.5507C25.3254 24.2571 25.5518 25.1319 25.8547 26.301C26.4198 28.4818 25.3503 30.6826 23.4692 31.2019L18.9901 32.4384C17.7571 32.7787 16.4135 32.3152 15.4854 31.2353L9.55622 24.3359L9.70224 24.1127C9.70596 24.1071 9.7093 24.1009 9.71279 24.0952C9.95416 23.6736 10.3506 23.3819 10.8076 23.2896C11.2761 23.2007 11.762 23.3248 12.1493 23.632L13.647 24.7845C13.778 24.8857 13.9527 24.8889 14.0834 24.7931C14.214 24.6973 14.2725 24.5227 14.2295 24.3572L11.6205 14.2988C11.4496 13.6402 11.7738 12.9765 12.3329 12.8222C12.892 12.6678 13.495 13.0762 13.6664 13.7351L15.2434 19.7986C15.2489 19.8197 15.2535 19.8412 15.2591 19.8627C15.2615 19.8719 15.2648 19.881 15.2672 19.89L15.9414 22.4825C15.9978 22.6991 16.2069 22.8296 16.4086 22.774C16.6102 22.7183 16.728 22.4975 16.6717 22.2809L15.9771 19.6103C15.8118 18.9749 16.1345 18.3538 16.6791 18.2034L16.7116 18.1944C17.271 18.04 17.8727 18.4354 18.0441 19.0943L18.6611 21.4665C18.7174 21.6831 18.9266 21.8136 19.1282 21.758C19.3299 21.7023 19.4477 21.4815 19.3913 21.2649L18.9073 19.4037C18.7358 18.7446 19.0396 18.0862 19.6021 17.9309C20.1613 17.7765 20.7439 18.1901 20.9154 18.8493L21.3721 20.6052C21.4284 20.8218 21.6376 20.9523 21.8392 20.8967C22.0408 20.841 22.1586 20.6202 22.1023 20.4036L21.855 19.4528C21.6836 18.7937 22.0169 18.1489 22.5763 17.9944L22.6068 17.986C23.1648 17.832 23.7561 18.231 23.9284 18.8876C24.4737 20.9659 24.6539 21.6624 25.1425 23.5507Z" fill="#535353"/>
<path d="M10.2445 13.8434C10.3885 13.8036 10.477 13.6629 10.4422 13.5291C10.2058 12.6031 10.8191 11.6326 11.8138 11.358C12.8086 11.0834 13.8106 11.608 14.0554 12.5316C14.0902 12.6655 14.2351 12.7418 14.3791 12.702C14.5231 12.6623 14.6116 12.5215 14.5768 12.3877C14.2619 11.1969 12.9704 10.5203 11.688 10.8743C10.4057 11.2282 9.61554 12.4796 9.92075 13.673C9.95556 13.8068 10.1005 13.8831 10.2445 13.8434Z" fill="#535353"/>
<path d="M14.007 12.5443C14.0498 12.7086 14.2252 12.7964 14.3924 12.7502C14.5592 12.7042 14.6677 12.5388 14.6252 12.3751L14.6251 12.3749C14.3022 11.1537 12.9803 10.4657 11.6747 10.8261C10.3696 11.1863 9.5595 12.4622 9.87231 13.6854L9.87236 13.6856C9.91511 13.85 10.0906 13.9378 10.2578 13.8916C10.4245 13.8456 10.533 13.6803 10.4906 13.5167C10.2619 12.6205 10.8552 11.6745 11.8271 11.4062C12.7987 11.138 13.7703 11.6511 14.007 12.5443ZM14.007 12.5443C14.007 12.5443 14.007 12.5443 14.007 12.5442L14.0554 12.5316L14.007 12.5444C14.007 12.5444 14.007 12.5444 14.007 12.5443ZM19.3838 17.1039L19.3834 17.104C18.9359 17.2312 18.5565 17.5377 18.3221 17.9578C17.8553 17.43 17.1646 17.1767 16.4942 17.3617L16.4626 17.3705C16.4624 17.3705 16.4623 17.3705 16.4622 17.3706C16.1218 17.4586 15.8188 17.6575 15.5938 17.9379L14.445 13.5209C14.1555 12.4079 13.1095 11.7153 12.1153 11.9897C11.1227 12.2637 10.5575 13.3995 10.8461 14.5114L13.1325 23.3349L12.616 22.9382C12.6159 22.9382 12.6158 22.9381 12.6157 22.938C12.0469 22.4901 11.3335 22.3105 10.646 22.4435L10.6458 22.4435C9.9734 22.5771 9.3894 23.0025 9.03138 23.618L8.71649 24.0959L8.71648 24.0959C8.60222 24.2694 8.61876 24.5055 8.75502 24.6642L8.75503 24.6642L14.8937 31.8092L14.9316 31.7766L14.8937 31.8092C16.0269 33.1276 17.68 33.693 19.2073 33.2714L23.708 32.0289L23.7555 32.0158L23.7543 32.0113C26.0388 31.3493 27.3215 28.6981 26.6438 26.083L26.5954 26.0955L26.6438 26.083C26.4764 25.4372 26.3315 24.8842 26.2044 24.3992C26.101 24.0048 26.0094 23.6553 25.9272 23.3378C25.4595 21.5303 25.2716 20.8144 24.7786 18.9355L24.7094 18.6717C24.4182 17.5617 23.3809 16.8796 22.3895 17.1533L22.3593 17.1616C22.3592 17.1616 22.3591 17.1616 22.3591 17.1617C21.9533 17.2711 21.601 17.5301 21.3624 17.8911C20.9021 17.2413 20.1306 16.8978 19.3838 17.1039Z" stroke="black" stroke-width="0.1"/>
</svg>
